<svg width="32" height="32" viewBox="0 0 32 32" fill="none" xmlns="http://www.w3.org/2000/svg">
<g clip-path="url(#clip0_519_108)">
<path d="M32 16C32 7.16344 24.8366 0 16 0C7.16344 0 0 7.16344 0 16C0 24.8366 7.16344 32 16 32C24.8366 32 32 24.8366 32 16Z" fill="#0A2240"/>
<path d="M23.9955 7H8C8 10.4729 8 13.948 8 17.4208C8 20.1471 9.21041 22.2172 11.7805 23.5747C13.0905 24.267 14.3846 24.9819 15.6833 25.69C15.7941 25.7511 15.8688 25.7873 16 25.905C16.1312 25.7851 16.2036 25.7511 16.3167 25.69C17.6154 24.9819 18.9095 24.267 20.2195 23.5747C22.7873 22.2172 24 20.1448 24 17.4208C24 13.948 24 10.4729 24 7H23.9955Z" fill="#0A2240"/>
<path d="M19.0928 13.0792C19.2059 13.0973 19.3258 13.0837 19.4163 13.043C19.5407 12.9841 19.629 12.8597 19.6335 12.7308C19.6267 12.6968 19.6041 12.6697 19.5656 12.6516C19.4955 12.6244 19.4276 12.5543 19.4321 12.4774C19.4457 12.4185 19.4615 12.362 19.4774 12.3009C19.5724 11.9366 19.6787 11.5226 19.4344 11.2081C19.2308 10.9321 18.9231 10.785 18.5407 10.785C18.5339 10.785 18.5294 10.785 18.5226 10.785C18.5113 10.785 18.4977 10.785 18.4842 10.785C18.4004 10.7896 18.3213 10.7941 18.2873 10.8574C18.5317 11.0113 18.7081 11.2398 18.7624 11.4706C18.8484 11.5068 18.8982 11.6018 18.9231 11.6538C18.957 11.7353 18.9185 11.8846 18.8756 12.0565C18.8213 12.267 18.7602 12.5068 18.7964 12.7172C18.8167 12.785 18.9004 13.0113 19.0928 13.0746V13.0792Z" fill="white"/>
<path d="M18.2104 13.0792C18.3213 13.0973 18.4434 13.0837 18.5339 13.043C18.6584 12.9841 18.7466 12.8597 18.7511 12.7308C18.7443 12.6968 18.7217 12.6697 18.6832 12.6516C18.6131 12.6244 18.5452 12.5543 18.552 12.4774C18.5656 12.4185 18.5814 12.362 18.5973 12.3009C18.6923 11.9366 18.7986 11.5226 18.5543 11.2081C18.3507 10.9321 18.043 10.785 17.6606 10.785C17.6538 10.785 17.6493 10.785 17.6425 10.785C17.6312 10.785 17.6176 10.785 17.6041 10.785C17.5203 10.7896 17.4412 10.7941 17.4072 10.8574C17.6516 11.0113 17.828 11.2398 17.8823 11.4706C17.9683 11.5068 18.0181 11.6018 18.043 11.6538C18.0769 11.7353 18.0384 11.8846 17.9955 12.0565C17.9412 12.267 17.8801 12.5068 17.9163 12.7172C17.9366 12.785 18.0203 13.0113 18.2127 13.0746L18.2104 13.0792Z" fill="white"/>
<path d="M17.3439 13.0792C17.457 13.0973 17.5769 13.0837 17.6674 13.043C17.7941 12.9842 17.8801 12.8597 17.8846 12.7308C17.8778 12.6991 17.8552 12.6719 17.8167 12.6538C17.7489 12.6267 17.681 12.5566 17.6855 12.4796C17.6991 12.4208 17.7149 12.3642 17.7308 12.3032C17.8258 11.9389 17.9321 11.5271 17.6878 11.2104C17.4841 10.9344 17.1765 10.7873 16.7941 10.7873C16.7873 10.7873 16.7828 10.7873 16.776 10.7873C16.7647 10.7873 16.7511 10.7873 16.7375 10.7873C16.6538 10.7918 16.5746 10.7964 16.5407 10.8597C16.7851 11.0136 16.9615 11.2421 17.0158 11.4728C17.1018 11.509 17.1516 11.6041 17.1765 11.6561C17.2104 11.7375 17.1719 11.8869 17.1289 12.0588C17.0746 12.2692 17.0136 12.509 17.0498 12.7195C17.0701 12.7873 17.1561 13.0136 17.3461 13.0769L17.3439 13.0792Z" fill="white"/>
<path d="M19.966 13.0792C20.0792 13.0973 20.1991 13.0837 20.2896 13.043C20.414 12.9841 20.5022 12.8597 20.5068 12.7308C20.5 12.6968 20.4774 12.6697 20.4389 12.6516C20.371 12.6244 20.3031 12.5543 20.3077 12.4774C20.3212 12.4185 20.3371 12.362 20.3529 12.3009C20.4479 11.9366 20.5543 11.5249 20.3099 11.2081C20.1063 10.9321 19.7986 10.785 19.4163 10.785C19.4095 10.785 19.405 10.785 19.3982 10.785C19.3869 10.785 19.3733 10.785 19.3597 10.785C19.276 10.7896 19.1968 10.7941 19.1629 10.8574C19.4072 11.0113 19.5837 11.2398 19.638 11.4706C19.7217 11.5068 19.7737 11.6018 19.7986 11.6538C19.8326 11.7353 19.7941 11.8846 19.7511 12.0565C19.6968 12.267 19.6357 12.5068 19.6719 12.7172C19.6923 12.785 19.776 13.0113 19.9683 13.0746L19.966 13.0792Z" fill="white"/>
<path d="M20.8439 13.0792C20.9547 13.0973 21.0769 13.0837 21.1674 13.043C21.2941 12.9841 21.3801 12.8597 21.3846 12.7308C21.3778 12.6968 21.3552 12.6719 21.3167 12.6538C21.2466 12.6267 21.1787 12.5565 21.1832 12.4796C21.1968 12.4208 21.2127 12.3642 21.2285 12.3031C21.3235 11.9389 21.4299 11.5249 21.1855 11.2081C20.9819 10.9321 20.6742 10.785 20.2918 10.785C20.2851 10.785 20.2805 10.785 20.2737 10.785C20.2624 10.785 20.2489 10.785 20.2353 10.785C20.1516 10.7896 20.0724 10.7941 20.0385 10.8574C20.2828 11.0113 20.4593 11.2398 20.5136 11.4706C20.5995 11.5068 20.6493 11.6018 20.6742 11.6538C20.7081 11.7353 20.6697 11.8846 20.6267 12.0565C20.5724 12.267 20.5113 12.5068 20.5475 12.7172C20.5679 12.785 20.6516 13.0113 20.8439 13.0746V13.0792Z" fill="white"/>
<path d="M15.0769 12.5452C15.0452 12.4593 15.0045 12.3755 14.9661 12.2941C14.8846 12.1221 14.8009 11.9434 14.7873 11.7375V11.7353C14.819 11.6267 14.8869 11.5384 14.9706 11.4977C15.0747 11.2104 15.2262 11.0045 15.4253 10.8823V10.8688C15.1674 10.7579 14.8145 10.8009 14.586 10.9683C14.2466 11.2081 14.0905 11.5475 14.1335 11.9502C14.1946 12.1674 14.2918 12.3778 14.3823 12.5814C14.5068 12.8552 14.6357 13.1357 14.6855 13.4479C14.6946 14.9344 14.7036 16.0701 14.7172 17.371L15.3077 17.9004L15.3348 17.9321L15.319 13.6764C15.3326 13.285 15.2511 12.9163 15.0769 12.5497V12.5452Z" fill="white"/>
<path d="M16.3484 13.0362C16.4344 13.1018 16.5588 13.1244 16.6833 13.0973C16.7964 13.0724 16.9389 12.9796 16.9887 12.8484C17.0339 12.7579 16.9774 12.7172 16.914 12.6719C16.8756 12.6448 16.8371 12.6176 16.8167 12.5769C16.8009 12.5204 16.8054 12.448 16.8303 12.3597C16.9502 12.0158 17.0769 11.5204 16.8009 11.2104C16.6652 11.0181 16.4706 10.8937 16.1855 10.819C15.8462 10.7692 15.5452 10.8575 15.31 11.0747C14.8054 11.5747 15.0543 12.1267 15.2964 12.6606C15.405 12.9004 15.5181 13.1493 15.5566 13.3846L15.6018 18.1131C15.6584 18.2036 15.7534 18.2805 15.8462 18.3552C15.8688 18.3733 15.8891 18.3891 15.9095 18.4072L15.9208 18.4185L16.233 18.1357V17.8145C16.224 16.4638 16.2149 15.0679 16.2014 13.7149C16.2421 13.2127 16.0611 12.7964 15.8824 12.3937C15.8122 12.2353 15.7398 12.0701 15.6833 11.9027C15.6448 11.7602 15.6878 11.6222 15.8009 11.5226C15.9118 11.4615 16.0633 11.4344 16.1606 11.509C16.2828 11.595 16.3371 11.7308 16.3145 11.8869C16.3009 11.9434 16.2828 12.0045 16.2647 12.0679C16.1697 12.3914 16.052 12.7941 16.3529 13.0407L16.3484 13.0362Z" fill="white"/>
<path d="M12.9525 16.9977V17.1538L13.5769 16.5995C13.5769 16.3914 13.5769 16.1674 13.5769 15.9366C13.5769 15.2127 13.5814 14.3914 13.5679 13.7013C13.6131 13.2262 13.4412 12.8326 13.2738 12.4502C13.1787 12.233 13.0814 12.009 13.0271 11.776V11.7715C13.0566 11.6674 13.0928 11.5611 13.1968 11.5158C13.2715 11.3258 13.4163 11.0656 13.6742 10.9027V10.8756C13.5679 10.8348 13.457 10.8145 13.3484 10.8145C13.052 10.8145 12.7602 10.9615 12.5633 11.2308C12.3824 11.4751 12.3235 11.8213 12.414 12.1154C12.4683 12.2466 12.5271 12.3778 12.586 12.5023C12.7217 12.7941 12.8597 13.0927 12.9231 13.4208C12.948 14.043 12.9457 14.7308 12.9457 15.3959C12.9457 15.9253 12.9434 16.4728 12.9547 16.9955L12.9525 16.9977Z" fill="white"/>
<path d="M14.1018 12.3303C14.043 12.1991 13.9819 12.0656 13.9299 11.9299L13.9073 11.7692C13.914 11.6765 13.9638 11.5611 14.0769 11.5068C14.1425 11.2873 14.3168 11.0633 14.5543 10.8937V10.8801C14.3258 10.7805 13.9955 10.8032 13.767 10.9344C13.4005 11.1448 13.2036 11.5362 13.2534 11.9502C13.3145 12.1652 13.4095 12.3733 13.5 12.5747C13.6244 12.8484 13.7534 13.1335 13.8009 13.4457C13.8258 14.0226 13.8258 14.6312 13.8258 15.2195C13.8258 15.6742 13.8258 16.1425 13.8371 16.5928C14.0226 16.7737 14.2308 16.9593 14.4367 17.1312L14.457 17.1538L14.448 13.6086C14.4638 13.1312 14.2806 12.7262 14.1041 12.3326L14.1018 12.3303Z" fill="white"/>
<path d="M11.9163 10.8891C11.6289 10.7737 11.2624 10.8303 11.0204 11.0294C10.7353 11.2647 10.595 11.5769 10.6154 11.9276C10.6697 12.1742 10.776 12.405 10.8778 12.6267C11.0023 12.8936 11.1289 13.1697 11.1674 13.4773L11.2127 18.1968C11.2466 18.2262 11.2805 18.2579 11.3145 18.2896C11.3801 18.3507 11.448 18.414 11.5249 18.4592L11.8235 18.19C11.8326 16.6448 11.8235 15.1063 11.7918 13.2059C11.733 12.9547 11.6335 12.7285 11.5271 12.4887L11.5158 12.4638C11.4909 12.3869 11.4525 12.3077 11.414 12.233C11.3213 12.0475 11.224 11.8574 11.3258 11.638C11.4231 11.5588 11.4751 11.4547 11.5249 11.3529C11.5746 11.2488 11.6267 11.1425 11.7285 11.0656C11.7511 11.043 11.7783 11.0203 11.8032 11C11.8439 10.966 11.8846 10.9321 11.9118 10.8936L11.9163 10.8891Z" fill="white"/>
<path d="M12.7918 10.905V10.8891C12.6991 10.828 12.5837 10.828 12.4593 10.828C12.4208 10.828 12.3801 10.828 12.3416 10.828C12.0317 10.8778 11.733 11.1041 11.5814 11.4004C11.3688 11.8778 11.5611 12.2647 11.7647 12.6742C11.8982 12.9457 12.0362 13.224 12.0475 13.5317C12.052 13.9751 12.0543 14.4185 12.0565 14.8461C12.0633 15.905 12.0701 16.9027 12.0905 17.9412C12.2308 17.828 12.3665 17.6968 12.5 17.5701C12.5679 17.5045 12.638 17.4389 12.7059 17.3756L12.6832 13.6063C12.7081 13.1425 12.5317 12.7557 12.3575 12.3823C12.2896 12.233 12.2172 12.0769 12.1606 11.9208L12.1516 11.7692C12.1516 11.6561 12.2421 11.5656 12.3213 11.5204C12.3801 11.3077 12.5384 11.0995 12.7896 10.905H12.7918Z" fill="white"/>
<path d="M19.0769 16.3552C19.0792 16.6855 19.0837 17.0113 19.0859 17.3213C19.1154 17.3507 19.147 17.3778 19.1787 17.4072C19.3507 17.5701 19.5294 17.7376 19.7126 17.8733C19.7149 17.8688 19.7194 17.8665 19.724 17.8642L19.6878 13.414L19.647 13.0656C19.647 13.0656 19.6402 13.0475 19.638 13.0362C19.6312 13.0136 19.6267 12.9955 19.6108 12.9864L19.4864 13.0905C19.3574 13.1674 19.1606 13.1855 19.0135 13.1357L19.0633 13.4208C19.0611 14.3733 19.0701 15.3801 19.0769 16.3552Z" fill="white"/>
<path d="M20.5362 13.0973L20.5 12.9909C20.4706 13.0045 20.4434 13.0271 20.4163 13.0498C20.3982 13.0656 20.3778 13.0814 20.3575 13.095C20.233 13.1855 20.0905 13.1651 19.9525 13.147C19.9299 13.1448 19.9072 13.1403 19.8846 13.138L19.9344 13.3416C19.9389 13.8213 19.9412 14.3054 19.9434 14.7715C19.9502 15.8665 19.957 17 19.9774 18.1222C20.2014 18.3145 20.267 18.3756 20.2851 18.3959L20.5792 18.1222L20.5882 18.0724L20.5701 13.5995L20.5339 13.0995L20.5362 13.0973Z" fill="white"/>
<path d="M17.966 14.9547C17.966 14.3258 17.966 13.6765 17.9027 13.0679L17.8756 13C17.8416 13.0181 17.8077 13.043 17.776 13.0656C17.7262 13.1041 17.6765 13.1425 17.6154 13.1561C17.5362 13.19 17.4434 13.1765 17.3597 13.1674C17.3235 13.1629 17.2896 13.1584 17.2579 13.1584L17.3099 13.362C17.3122 14.181 17.328 14.9774 17.3416 15.819C17.3484 16.2375 17.3575 16.6697 17.362 17.1018C17.5633 16.9502 17.7715 16.7647 17.9774 16.5498L17.9683 15.5656C17.9683 15.3642 17.966 15.1561 17.966 14.957V14.9547Z" fill="white"/>
<path d="M18.8371 14.8936C18.8416 14.2805 18.8439 13.647 18.7828 13.0973V13.0882C18.7738 13.052 18.7624 13.0068 18.7308 12.9977C18.6787 13.0565 18.491 13.224 18.1312 13.1493L18.181 13.3823C18.1855 13.7013 18.1878 14.0181 18.19 14.3258C18.1968 15.095 18.2036 15.8212 18.224 16.5701C18.2783 16.6176 18.3348 16.6697 18.3891 16.7172C18.5385 16.8507 18.6923 16.9887 18.8348 17.0905C18.8484 16.8597 18.8484 16.6154 18.8462 16.3801C18.8462 16.2602 18.8462 16.1493 18.8462 16.0407C18.8303 15.6832 18.8326 15.3009 18.8348 14.8936H18.8371Z" fill="white"/>
<path d="M17 13.0068C16.9661 13.0158 16.9366 13.0407 16.9072 13.0656C16.8891 13.0814 16.8688 13.0973 16.8484 13.1109C16.6946 13.2059 16.5317 13.181 16.3891 13.1584C16.3937 13.1878 16.4004 13.2194 16.4072 13.2489C16.4231 13.3167 16.4366 13.3846 16.4412 13.4615L16.4819 17.8982C16.6923 17.7421 16.8914 17.552 17.0814 17.371V13.595L17.0407 13.1267L17 13.0045V13.0068Z" fill="white"/>
<path d="M13.7059 20.3439C13.7059 20.3439 13.6923 20.3326 13.6855 20.3235C13.6787 20.3145 13.6765 20.3054 13.6765 20.2987C13.6765 20.2851 13.6765 20.2783 13.681 20.276C13.7466 20.233 13.8167 20.1901 13.8869 20.1448C13.9593 20.1018 14.0158 20.0679 14.0565 20.043C14.0995 20.0181 14.1199 20.0068 14.1244 20.0068H14.1289C14.1289 20.0068 14.147 20.0181 14.1516 20.043C14.1403 20.0815 14.1335 20.1426 14.1335 20.2263V21.0068C14.1335 21.0611 14.138 21.1064 14.1493 21.1471C14.1516 21.1561 14.1674 21.1652 14.1991 21.1765C14.2285 21.1878 14.2511 21.1923 14.2602 21.1923C14.2647 21.1923 14.267 21.2059 14.267 21.233C14.267 21.2489 14.267 21.2579 14.2624 21.2647C14.2489 21.2647 14.2104 21.2602 14.147 21.2557C14.0837 21.2511 14.0384 21.2489 14.009 21.2489C13.9796 21.2489 13.9321 21.2489 13.8688 21.2557C13.8054 21.2602 13.767 21.2625 13.7534 21.2647C13.7489 21.2602 13.7466 21.2466 13.7466 21.224C13.7466 21.2014 13.7489 21.1923 13.7534 21.1923C13.767 21.1923 13.7896 21.1878 13.8212 21.1742C13.8529 21.1607 13.8688 21.1516 13.871 21.1403C13.8778 21.1086 13.8823 21.0724 13.8823 21.0294V20.3756C13.8823 20.31 13.8688 20.2783 13.8439 20.2783C13.8235 20.2783 13.7783 20.2987 13.7081 20.3416L13.7059 20.3439Z" fill="white"/>
<path d="M15.1742 20.0023C15.2828 20.0023 15.3756 20.0407 15.4593 20.1131C15.5407 20.1878 15.5837 20.2851 15.5837 20.405C15.5837 20.5091 15.5633 20.6086 15.5203 20.7014C15.4774 20.7941 15.4208 20.8778 15.3507 20.9502C15.2805 21.0226 15.2036 21.0837 15.1222 21.1358C15.0407 21.1878 14.957 21.2308 14.8688 21.267C14.8461 21.2625 14.8348 21.2398 14.8348 21.2014C14.9434 21.1539 15.0384 21.0905 15.1176 21.0068C15.1968 20.9231 15.2511 20.8371 15.2805 20.7444C15.2851 20.7263 15.2828 20.7127 15.276 20.7036C15.2375 20.7195 15.2013 20.7263 15.1651 20.7263C15.0633 20.7263 14.9751 20.6923 14.9027 20.6222C14.8303 20.5521 14.7918 20.4706 14.7918 20.3733C14.7918 20.276 14.8303 20.1878 14.9072 20.1131C14.9841 20.0385 15.0724 20 15.1765 20L15.1742 20.0023ZM15.319 20.3824C15.319 20.1946 15.2692 20.1018 15.1719 20.1018C15.1267 20.1018 15.0973 20.1222 15.0792 20.1629C15.0611 20.2036 15.052 20.267 15.052 20.3575C15.052 20.448 15.0656 20.5136 15.0905 20.5588C15.1154 20.6041 15.1606 20.6267 15.2217 20.6267C15.2692 20.6267 15.2986 20.6086 15.3077 20.5724C15.3145 20.543 15.319 20.4797 15.3213 20.3846L15.319 20.3824Z" fill="white"/>
<path d="M16.5158 20.0068C16.6109 20.0068 16.6923 20.0362 16.7557 20.0973C16.819 20.1584 16.8529 20.2398 16.8529 20.3416C16.8529 20.3824 16.8484 20.4231 16.8371 20.4638C16.8258 20.5045 16.8077 20.5475 16.7783 20.5905C16.7489 20.6358 16.724 20.672 16.7059 20.6991C16.6855 20.7263 16.6516 20.767 16.5995 20.819C16.5475 20.8711 16.5113 20.905 16.4932 20.9231C16.4751 20.9412 16.4321 20.9797 16.3688 21.0385C16.3665 21.0407 16.3665 21.0453 16.3688 21.0498C16.3688 21.0543 16.3733 21.0566 16.3778 21.0566H16.7104C16.7376 21.0566 16.7602 21.0521 16.7805 21.043C16.8009 21.034 16.8145 21.0181 16.828 20.9978C16.8416 20.9774 16.8484 20.9593 16.8529 20.9457C16.8575 20.9321 16.8642 20.9118 16.871 20.8846C16.8733 20.8756 16.8846 20.8711 16.905 20.8711C16.9253 20.8711 16.9389 20.8756 16.9502 20.8824C16.9253 20.9932 16.8982 21.1086 16.8756 21.2285C16.8733 21.2466 16.8642 21.2557 16.8529 21.2557H16.1425C16.129 21.2398 16.1199 21.2195 16.1199 21.1923C16.2443 21.0543 16.3529 20.9095 16.448 20.7534C16.543 20.5973 16.5905 20.4729 16.5905 20.3778C16.5905 20.3213 16.5747 20.2738 16.5452 20.2308C16.5158 20.1878 16.4751 20.1674 16.4253 20.1674C16.3937 20.1674 16.362 20.1742 16.3348 20.1878C16.3077 20.2014 16.2873 20.2149 16.2737 20.2308C16.2602 20.2444 16.2489 20.2602 16.2353 20.2783L16.2149 20.3054C16.2149 20.3054 16.1923 20.3009 16.1787 20.2919C16.1652 20.2828 16.1584 20.2715 16.1584 20.2579C16.1697 20.2353 16.1833 20.2104 16.1991 20.1878C16.2149 20.1629 16.2398 20.138 16.267 20.1064C16.2964 20.0769 16.3326 20.0521 16.3778 20.034C16.4231 20.0159 16.4706 20.0068 16.5249 20.0068H16.5158Z" fill="white"/>
<path d="M17.7081 20.2127C17.6968 20.2127 17.6855 20.2127 17.6742 20.2172C17.6629 20.2195 17.6561 20.224 17.647 20.2285C17.6403 20.2331 17.6335 20.2398 17.6267 20.2489C17.6199 20.2579 17.6131 20.2647 17.6086 20.2693C17.6041 20.2738 17.5995 20.2828 17.595 20.2964C17.5905 20.31 17.586 20.319 17.5837 20.3236C17.5814 20.3281 17.5792 20.3394 17.5746 20.353C17.5701 20.3688 17.5679 20.3779 17.5656 20.3801C17.5633 20.3869 17.5498 20.3914 17.5249 20.3937C17.5 20.3937 17.4841 20.3937 17.4774 20.3846C17.509 20.267 17.5362 20.1516 17.5633 20.0362C17.5679 20.0204 17.5792 20.0136 17.5995 20.0136H18.1742C18.1946 20.0136 18.2194 20.0136 18.2534 20.0091H18.3031C18.3031 20.0091 18.3167 20.0136 18.3167 20.0249C18.3167 20.0453 18.2986 20.0883 18.2647 20.1561L17.7307 21.2738C17.7307 21.2738 17.7217 21.2738 17.7172 21.2738C17.6991 21.2738 17.6832 21.267 17.6674 21.2534C17.6538 21.2398 17.647 21.224 17.647 21.2059L18.1403 20.2082H17.7059L17.7081 20.2127Z" fill="white"/>
<path d="M23.2489 7.81448V10.4344C23.2489 12.7466 23.2489 15.0611 23.2489 17.3733C23.2489 19.8891 22.1358 21.7014 19.8439 22.9118C18.8688 23.4276 17.8869 23.9638 16.9367 24.4842C16.6652 24.6335 16.3937 24.7805 16.1222 24.9299L16.095 24.9434C16.0634 24.9615 16.0294 24.9774 15.9955 25C15.9615 24.9796 15.9276 24.9615 15.8959 24.9434L15.8688 24.9299C15.5973 24.7805 15.3258 24.6335 15.0543 24.4842C14.1041 23.9638 13.1222 23.4276 12.1471 22.9118C9.85521 21.7014 8.74209 19.8891 8.74209 17.3733C8.74209 15.0611 8.74209 12.7466 8.74209 10.4344V7.81448H23.2443M23.6109 7.44797H8.3801C8.3801 10.7557 8.3801 14.0656 8.3801 17.3733C8.3801 19.9706 9.53394 21.9434 11.9796 23.2353C13.2263 23.8937 14.4593 24.5747 15.6968 25.2511C15.8032 25.31 15.8733 25.3439 15.9977 25.457C16.1222 25.3439 16.1923 25.31 16.2986 25.2511C17.5362 24.5769 18.7692 23.8937 20.0158 23.2353C22.4638 21.9434 23.6177 19.9683 23.6154 17.3733C23.6154 14.0656 23.6154 10.7557 23.6154 7.44797H23.6109Z" fill="#DAA900"/>
</g>
<defs>
<clipPath id="clip0_519_108">
<rect width="32" height="32" fill="white"/>
</clipPath>
</defs>
</svg>
